<svg fill="#000000" xmlns="http://www.w3.org/2000/svg" viewBox="0 0 30 30" width="30px"
     height="30px">
    <path
        d="M23,6c2.034,0.411,2.398,0,3.514,0C27.341,6,28,6.665,28,7.486v0.939c0,0-0.566-0.5-1-0.5s-3,1.208-3,1.208L23,6z"/>
    <path fill="none" stroke="#000000" stroke-linecap="round" stroke-miterlimit="10"
          stroke-width="2" d="M19 26c0 0-1.871-.33-3-.33-.768 0-2 .33-2 .33M15 25L15 22"/>
    <path d="M4 20A1 1 0 1 0 4 22A1 1 0 1 0 4 20Z"/>
    <path
        d="M20.393,3.019C18.007,2.791,16,4.661,16,7l0.066,4.127c0.013,0.83-0.488,1.582-1.259,1.89l-6.083,2.425c-0.488,0.195-0.7,0.787-0.428,1.237c1.491,2.466,4.588,3.564,7.353,2.462c0.026-0.01,0.052-0.021,0.078-0.031c0.582-0.234,0.973,0.601,0.42,0.898c-0.322,0.172-0.681,0.341-1.084,0.502c-2.904,1.158-6.12,0.236-8.007-2.055l-3.415,1.613l0.251,1.924c0,0,6.044,0.982,11.994,1.009C20.771,23.022,24,19.055,24,15l0-7.828C24,5.083,22.473,3.217,20.393,3.019z M21,8c-0.552,0-1-0.448-1-1c0-0.552,0.448-1,1-1c0.552,0,1,0.448,1,1C22,7.552,21.552,8,21,8z"/>
</svg>
