<svg fill="#000000" xmlns="http://www.w3.org/2000/svg"  viewBox="0 0 30 30" width="30px" height="30px"><path fill="none" stroke="#000000" stroke-linecap="round" stroke-linejoin="round" stroke-miterlimit="10" stroke-width="2" d="M18,26	c0,0,0.692-0.5,1.278-0.5S21,26,21,26"/><line x1="19" x2="19" y1="25" y2="22" fill="none" stroke="#000000" stroke-linecap="round" stroke-linejoin="round" stroke-miterlimit="10" stroke-width="2"/><path d="M27.081,4.991C26.749,4.418,26.073,4,25,4l0.115,4c0.691,0,1.251-0.29,1.581-0.73L27.431,8	C28.7,6.623,27.513,5.249,27.081,4.991z"/><path d="M23,3c-2.044,0-4,1.658-4,3.702C19,8.747,20.955,10,23,10s2.594-1.229,2.594-3.298C25.594,5.68,26,5.231,26,4.639	C26,3.588,25.426,3,23,3z M23,7c-0.552,0-1-0.448-1-1c0-0.552,0.448-1,1-1s1,0.448,1,1C24,6.552,23.552,7,23,7z"/><path fill="none" stroke="#000000" stroke-linecap="round" stroke-linejoin="round" stroke-miterlimit="10" stroke-width="2" d="M19,11	c1.355,0,3,1.147,3,3.505c0,6.504-10.255,9.494-15,9.494C11.883,17.981,14.797,11,19,11z"/><path d="M19.092,5.975c-0.234,1.458-0.846,3.356-1.601,5.333C17.978,11.109,18.479,11,19,11c1.355,0,3,1.147,3,3.505	c0,6.504-10.255,9.494-15,9.494c0.055-0.068,0.106-0.137,0.161-0.205L1.99,26c0,0,0.017,1,2.01,1c3.467,0,10.021-2.779,12.759-4.012	C16.841,22.991,16.922,23,17.005,23C23,23,25,17.001,25,15C25,11.894,22.89,7.398,19.092,5.975z"/></svg>