<svg fill="#000000" xmlns="http://www.w3.org/2000/svg"  viewBox="0 0 24 24" width="30px" height="30px"><path fill="none" stroke="#000000" stroke-miterlimit="10" stroke-width="2" d="M15.357,11.022C16.007,9.311,16,9.031,16,8 c0-1.414-2-4-2-5"/><path d="M4.719,17c0.717-2.953,1.516-3.844,2.641-4.922c1.595-1.529,4.009-2.004,5.627-2.267C13.912,9.661,14.941,9.3,15,8.494 l1.734,0.585c0.254,0.474,0.164,0.799-0.579,2.842c-0.066,0.183-0.119,0.326-0.142,0.395c-1.55,4.649-4.798,6.171-7.664,7.002 C6,20,4.247,22,4.247,22S4.418,18.239,4.719,17z"/><line x1="11" x2="11" y1="15" y2="24" fill="none" stroke="#000000" stroke-miterlimit="10" stroke-width="2"/><path d="M15,1c-1.105,0-2,0.895-2,2h7C20,3,16,1,15,1z"/></svg>