<svg fill="#000000" xmlns="http://www.w3.org/2000/svg"  viewBox="0 0 30 30" width="30px" height="30px"><path d="M23,6c-1.8,0-3.6,1-4,2.7c0,0-2.062-5.7-8.5-5.7C6,3.1,2.1,6.5,2,11c-0.1,4.8,3.7,9,8.5,9c4.7,0,4.796-1.9,7.044-1.9c3.649,0,3.504-3.261,4.671-3.522c1.167-0.261,1.635,0.876,3.503-0.029C26.505,14.169,27,12.506,27,10.159C27,8.159,25.8,6,23,6z"/><path fill="none" stroke="#000000" stroke-linecap="round" stroke-linejoin="round" stroke-miterlimit="10" stroke-width="2" d="M11 19v3c1.74 0 3 1 3 1M6.005 16.505C7.634 19.543 7 24 7 24c1.859 0 3 1 3 1M24 11c0 0 3 3.958 3 12"/></svg>