<svg fill="#000000" xmlns="http://www.w3.org/2000/svg"  viewBox="0 0 30 30" width="30px" height="30px"><path fill="none" stroke="#000000" stroke-linecap="round" stroke-linejoin="round" stroke-miterlimit="10" stroke-width="2" d="M0.998,19.082c5.045,0,7.242-4.506,11.864-6.971c3.011-1.606,5.2-1.347,5.238-4.043S20.153,5,21,5s2.762,0.604,2.762,2.606	c0,1.733-1.733,2.311-1.733,2.311"/><path fill="none" stroke="#000000" stroke-linecap="round" stroke-linejoin="round" stroke-miterlimit="10" stroke-width="2" d="M22.183,9.917c0,0,1.849,1.088,1.849,4.158C24.032,17.542,19.428,20,16,20s-6-1-6-1s-3.3,0-8,0"/><path d="M23,7h3c1.105,0,2,0.895,2,2l-5,0V7z"/><line x1="16" x2="16" y1="25" y2="20" fill="none" stroke="#000000" stroke-linecap="round" stroke-linejoin="round" stroke-miterlimit="10" stroke-width="2"/><line x1="19" x2="16" y1="25" y2="25" fill="none" stroke="#000000" stroke-linecap="round" stroke-linejoin="round" stroke-miterlimit="10" stroke-width="2"/><path d="M18.016,10.091c0,0,2.054,0.611,2.054,3.026S17.85,17,15,17c-5.005,0-7.393-0.747-9.003,0.28c0,0,4.33-3.636,6.051-4.524	C13.77,11.867,17.933,10.868,18.016,10.091z"/></svg>