<svg fill="#000000" xmlns="http://www.w3.org/2000/svg"  viewBox="0 0 30 30" width="30px" height="30px"><path d="M17.879 6.823c0 0 4.908-.822 7.877-2.048C26.161 4.608 26.03 4 25.593 4h-7.713V6.823zM20.915 16.598c0 0-1.623-2.87-4.079-4.262.885 2.746-1.54 3.712-4.247 4.935-2.79 1.26-4.227 1.69-6.226 5.054C5.4 23.945 5 24.994 5 25.997l1 1.001c0 0 2.744.002 3.493.003C9.495 27.001 9.497 27 9.5 27c2.986 0 4.5-2.019 4.5-6 0-.552.447-1 1-1s1 .448 1 1c0 2.516-.558 4.236-1.359 5.428 1.284-.453 2.458-1.161 3.442-2.118C19.964 22.481 21 19.885 21 17 21 16.861 20.972 16.725 20.915 16.598z"/><path fill="none" stroke="#000000" stroke-linecap="round" stroke-linejoin="round" stroke-miterlimit="10" stroke-width="2" d="M20,17c0-5.615-7-7.365-7-11c0-1.788,1-3,1-3s0.831,1,1.431,1c1.445,0,2.426,0.881,2.426,2.143c0,0.303-0.099,0.506-0.099,0.506"/><path d="M6 25A1 1 0 1 0 6 27A1 1 0 1 0 6 25Z"/></svg>