<svg fill="#000000" xmlns="http://www.w3.org/2000/svg"  viewBox="0 0 30 30" width="30px" height="30px"><path d="M4.884,16.544L3,17c0,4,4.268,10,11.878,10C21.104,27,26,24.714,26,19c0-4.029-6.007-7.754-6.007-10.476C19.993,7.312,21,7,21,7s0.211,1,1.343,1C23.68,8,24,6.498,24,5.927C24,4.212,22.887,3,21.331,3C18.953,3,18,5.818,18,8c0,7.203,4.812,8.078,1.976,11.976C19.976,19.976,8.952,23.194,4.884,16.544z"/><path d="M15.932 23c-7.109 0-9.503-8-9.503-8 3.404 0 5.08-1 7.572-1 4.392 0 7 3.236 7 6C21 21.569 18.698 23 15.932 23zM22.974 6.734c.616-.674.936-.675.936-.675.392.479.388 1.197.204 1.49-.183.292.164.857.164.857.86 1.087.41 1.252.41 1.252-2.237 0-3.326-2.052-3.326-2.052l.39-.301C21.753 7.304 22.359 7.408 22.974 6.734zM4 16A1 1 0 1 0 4 18 1 1 0 1 0 4 16z"/></svg>